<svg xmlns="http://www.w3.org/2000/svg" xmlns:xlink="http://www.w3.org/1999/xlink" width="250" zoomAndPan="magnify" viewBox="0 0 187.5 74.999997" height="100" preserveAspectRatio="xMidYMid meet" version="1.0"><defs><g/><clipPath id="id1"><path d="M 7.5 7.601562 L 67.5 7.601562 L 67.5 67.601562 L 7.5 67.601562 Z M 7.5 7.601562 " clip-rule="nonzero"/></clipPath></defs><g clip-path="url(#id1)"><path fill="rgb(100%, 59.999084%, 59.999084%)" d="M 37.5 67.601562 C 20.929688 67.601562 7.5 54.167969 7.5 37.601562 C 7.5 21.03125 20.929688 7.601562 37.5 7.601562 C 54.070312 7.601562 67.5 21.03125 67.5 37.601562 C 67.5 54.167969 54.070312 67.601562 37.5 67.601562 Z M 37.5 67.601562 " fill-opacity="1" fill-rule="nonzero"/></g><path fill="rgb(95.689392%, 91.369629%, 87.449646%)" d="M 53.425781 51.34375 C 49.71875 57.457031 40.554688 54.835938 36.847656 54.835938 C 33.136719 54.835938 24.847656 58.328125 21.136719 52 C 17.425781 45.671875 24.410156 35.417969 37.5 35.417969 C 50.371094 35.417969 57.136719 45.234375 53.425781 51.34375 Z M 31.105469 31.675781 C 34.25 30.832031 35.945312 26.988281 34.898438 23.089844 C 33.851562 19.191406 30.457031 16.714844 27.3125 17.558594 C 24.171875 18.402344 22.472656 22.25 23.519531 26.148438 C 24.566406 30.042969 27.964844 32.519531 31.105469 31.675781 Z M 43.019531 31.675781 C 46.164062 32.519531 49.558594 30.042969 50.609375 26.148438 C 51.65625 22.25 49.957031 18.402344 46.816406 17.558594 C 43.671875 16.714844 40.277344 19.191406 39.230469 23.089844 C 38.179688 26.988281 39.878906 30.832031 43.019531 31.675781 Z M 57.136719 28.652344 C 54.246094 28.652344 51.898438 31 51.898438 33.890625 C 51.898438 36.78125 54.246094 39.125 57.136719 39.125 C 60.027344 39.125 62.371094 36.78125 62.371094 33.890625 C 62.371094 31 60.027344 28.652344 57.136719 28.652344 Z M 23.101562 34.546875 C 23.101562 31.652344 20.753906 29.308594 17.863281 29.308594 C 14.972656 29.308594 12.628906 31.652344 12.628906 34.546875 C 12.628906 37.4375 14.972656 39.78125 17.863281 39.78125 C 20.753906 39.78125 23.101562 37.4375 23.101562 34.546875 Z M 23.101562 34.546875 " fill-opacity="1" fill-rule="nonzero"/><path fill="rgb(90.979004%, 76.078796%, 65.098572%)" d="M 53.265625 43.34375 C 54.726562 46.042969 54.867188 48.972656 53.425781 51.34375 C 49.71875 57.457031 40.554688 54.835938 36.847656 54.835938 C 33.136719 54.835938 24.847656 58.328125 21.136719 52 C 21.078125 51.902344 21.023438 51.800781 20.96875 51.699219 C 22.871094 53.089844 26.152344 54.601562 30.625 53.417969 C 38.042969 51.453125 43.71875 54.289062 48.296875 52.761719 C 52.648438 51.3125 54.976562 48.476562 53.265625 43.34375 Z M 61.277344 30.6875 C 61.945312 32.566406 61.859375 35.179688 59.535156 36.726562 C 56.484375 38.761719 53.742188 37.109375 52.472656 36.269531 C 53.335938 37.964844 55.101562 39.128906 57.136719 39.128906 C 60.027344 39.128906 62.371094 36.78125 62.371094 33.890625 C 62.371094 32.683594 61.960938 31.570312 61.277344 30.6875 Z M 23.101562 34.546875 C 23.101562 33.335938 22.691406 32.226562 22.003906 31.339844 C 22.671875 33.21875 22.585938 35.835938 20.261719 37.382812 C 17.210938 39.414062 14.46875 37.761719 13.199219 36.925781 C 14.0625 38.621094 15.828125 39.78125 17.863281 39.78125 C 20.753906 39.78125 23.101562 37.4375 23.101562 34.546875 Z M 31.105469 31.675781 C 34.25 30.832031 35.945312 26.988281 34.898438 23.089844 C 34.664062 22.214844 34.3125 21.414062 33.871094 20.707031 C 34.71875 23.332031 34.769531 26.867188 32.265625 28.875 C 29.691406 30.929688 26.425781 29.902344 25.144531 29.367188 C 26.699219 31.28125 28.960938 32.253906 31.105469 31.675781 Z M 43.019531 31.675781 C 46.164062 32.519531 49.558594 30.042969 50.609375 26.148438 C 51.199219 23.949219 50.914062 21.765625 49.992188 20.128906 C 50.503906 22 50.609375 24.851562 48.191406 27.78125 C 45.117188 31.503906 41.566406 30.183594 39.933594 29.257812 C 40.648438 30.445312 41.707031 31.324219 43.019531 31.675781 Z M 43.019531 31.675781 " fill-opacity="1" fill-rule="nonzero"/><path fill="rgb(100%, 100%, 100%)" d="M 37.5 35.417969 C 43.5 35.417969 48.171875 37.550781 51.074219 40.445312 C 48.113281 38.027344 43.191406 34.867188 31.390625 37.816406 C 22.949219 39.929688 20.648438 44.832031 20.148438 48.375 C 20.070312 42.386719 26.710938 35.417969 37.5 35.417969 Z M 42.628906 19.816406 C 44.96875 18.167969 47.476562 18.425781 49.015625 18.839844 C 48.40625 18.234375 47.664062 17.789062 46.816406 17.558594 C 43.675781 16.714844 40.277344 19.191406 39.230469 23.089844 C 38.925781 24.21875 38.855469 25.347656 38.980469 26.398438 C 39.378906 24.378906 40.335938 21.433594 42.628906 19.816406 Z M 57.136719 28.652344 C 54.246094 28.652344 51.898438 31 51.898438 33.890625 C 51.898438 34.4375 51.984375 34.964844 52.140625 35.457031 C 52.15625 33.824219 52.59375 31.160156 55.0625 29.851562 C 57.257812 28.691406 59.300781 29.285156 60.605469 29.964844 C 59.679688 29.152344 58.464844 28.652344 57.136719 28.652344 Z M 24.074219 27.65625 C 23.652344 25.164062 23.445312 21.011719 26.265625 19.378906 C 28.75 17.941406 30.84375 18.226562 32.308594 18.878906 C 30.859375 17.640625 29.046875 17.09375 27.3125 17.558594 C 24.167969 18.402344 22.472656 22.246094 23.519531 26.144531 C 23.664062 26.679688 23.851562 27.183594 24.074219 27.65625 Z M 17.863281 29.308594 C 14.972656 29.308594 12.628906 31.652344 12.628906 34.546875 C 12.628906 35.40625 12.835938 36.214844 13.203125 36.929688 C 13 34.949219 13.214844 32.082031 15.792969 30.726562 C 17.566406 29.792969 19.101562 29.699219 20.273438 29.898438 C 19.554688 29.523438 18.734375 29.308594 17.863281 29.308594 Z M 17.863281 29.308594 " fill-opacity="1" fill-rule="nonzero"/><path fill="rgb(24.308777%, 25.489807%, 28.62854%)" d="M 30.042969 39.6875 C 30.15625 39.964844 30.019531 40.285156 29.742188 40.394531 C 24.949219 42.335938 23.75 46.957031 23.738281 47.003906 C 23.675781 47.25 23.453125 47.417969 23.207031 47.417969 C 23.164062 47.417969 23.121094 47.414062 23.078125 47.402344 C 22.785156 47.332031 22.605469 47.035156 22.679688 46.742188 C 22.730469 46.53125 24.007812 41.539062 29.332031 39.386719 C 29.609375 39.273438 29.929688 39.40625 30.042969 39.6875 Z M 22.464844 26.429688 C 21.265625 21.957031 23.3125 17.503906 27.027344 16.507812 C 27.527344 16.371094 28.046875 16.304688 28.566406 16.304688 L 28.566406 17.394531 L 28.566406 16.304688 C 31.886719 16.304688 34.921875 18.976562 35.953125 22.808594 C 37.152344 27.28125 35.105469 31.730469 31.390625 32.730469 C 30.890625 32.863281 30.371094 32.933594 29.851562 32.933594 C 26.535156 32.933594 23.496094 30.257812 22.464844 26.429688 Z M 23.519531 26.148438 C 24.429688 29.53125 27.109375 31.839844 29.851562 31.839844 C 30.269531 31.839844 30.691406 31.785156 31.105469 31.675781 C 34.246094 30.832031 35.945312 26.988281 34.898438 23.089844 C 33.988281 19.707031 31.308594 17.394531 28.566406 17.394531 C 28.148438 17.394531 27.726562 17.449219 27.3125 17.558594 C 24.167969 18.402344 22.472656 22.25 23.519531 26.148438 Z M 38.554688 28.96875 C 37.738281 27.117188 37.605469 24.929688 38.175781 22.804688 C 39.203125 18.976562 42.242188 16.304688 45.5625 16.304688 C 46.078125 16.304688 46.597656 16.371094 47.097656 16.503906 C 50.816406 17.503906 52.863281 21.957031 51.660156 26.429688 C 50.632812 30.257812 47.59375 32.929688 44.273438 32.929688 C 43.753906 32.929688 43.238281 32.863281 42.738281 32.730469 C 40.894531 32.234375 39.410156 30.898438 38.554688 28.96875 Z M 43.019531 31.675781 C 43.4375 31.789062 43.855469 31.839844 44.273438 31.839844 C 47.019531 31.839844 49.695312 29.53125 50.605469 26.148438 C 51.65625 22.25 49.957031 18.402344 46.8125 17.558594 C 46.398438 17.449219 45.980469 17.394531 45.5625 17.394531 C 42.816406 17.394531 40.136719 19.707031 39.230469 23.089844 C 38.179688 26.988281 39.878906 30.832031 43.019531 31.675781 Z M 63.464844 33.890625 C 63.464844 37.378906 60.625 40.21875 57.136719 40.21875 C 53.648438 40.21875 50.808594 37.378906 50.808594 33.890625 C 50.808594 30.402344 53.648438 27.5625 57.136719 27.5625 C 60.625 27.5625 63.464844 30.402344 63.464844 33.890625 Z M 62.371094 33.890625 C 62.371094 31 60.027344 28.652344 57.136719 28.652344 C 54.246094 28.652344 51.898438 31 51.898438 33.890625 C 51.898438 36.78125 54.246094 39.125 57.136719 39.125 C 60.027344 39.125 62.371094 36.78125 62.371094 33.890625 Z M 17.863281 40.871094 C 14.375 40.871094 11.535156 38.035156 11.535156 34.542969 C 11.535156 31.054688 14.375 28.214844 17.863281 28.214844 C 21.351562 28.214844 24.191406 31.054688 24.191406 34.542969 C 24.191406 38.035156 21.351562 40.871094 17.863281 40.871094 Z M 23.101562 34.546875 C 23.101562 31.652344 20.753906 29.308594 17.863281 29.308594 C 14.972656 29.308594 12.628906 31.652344 12.628906 34.546875 C 12.628906 37.4375 14.972656 39.78125 17.863281 39.78125 C 20.753906 39.78125 23.101562 37.4375 23.101562 34.546875 Z M 54.132812 42.652344 C 55.921875 45.832031 56.003906 49.207031 54.359375 51.914062 C 52.492188 54.988281 49.234375 56.484375 44.394531 56.484375 C 42.652344 56.484375 40.980469 56.304688 39.507812 56.144531 C 38.445312 56.027344 37.527344 55.925781 36.847656 55.925781 C 36.082031 55.925781 34.992188 56.113281 33.835938 56.308594 C 32.226562 56.578125 30.398438 56.886719 28.546875 56.886719 C 24.636719 56.886719 21.90625 55.46875 20.195312 52.550781 C 18.539062 49.726562 18.679688 46.195312 20.585938 42.871094 C 21.984375 40.429688 24.199219 38.34375 26.984375 36.839844 C 30.023438 35.195312 33.664062 34.328125 37.5 34.328125 C 46.308594 34.328125 51.867188 38.628906 54.132812 42.652344 Z M 37.5 35.417969 C 24.410156 35.417969 17.425781 45.671875 21.136719 52 C 22.898438 55.007812 25.699219 55.796875 28.546875 55.796875 C 31.691406 55.796875 34.898438 54.835938 36.84375 54.835938 C 38.558594 54.835938 41.429688 55.394531 44.394531 55.394531 C 47.851562 55.394531 51.429688 54.636719 53.425781 51.34375 C 57.136719 45.234375 50.371094 35.417969 37.5 35.417969 Z M 37.5 35.417969 " fill-opacity="1" fill-rule="nonzero"/><g fill="rgb(24.308777%, 25.489807%, 28.62854%)" fill-opacity="0.3098"><g transform="translate(76.529979, 49.033653)"><g><path d="M 7.078125 0 C 14.667969 0 18.117188 -4.4375 18.117188 -10.199219 C 18.117188 -15.957031 14.636719 -20.394531 7.078125 -20.394531 L 2.21875 -20.394531 C 1.828125 -20.394531 1.621094 -20.183594 1.621094 -19.796875 L 1.621094 -0.601562 C 1.621094 -0.210938 1.828125 0 2.21875 0 Z M 6.117188 -16.316406 L 7.5 -16.316406 C 11.878906 -16.316406 13.617188 -13.585938 13.617188 -10.199219 C 13.617188 -6.808594 11.847656 -4.078125 7.5 -4.078125 L 6.117188 -4.078125 Z M 6.117188 -16.316406 "/></g></g></g><g fill="rgb(24.308777%, 25.489807%, 28.62854%)" fill-opacity="0.3098"><g transform="translate(95.452509, 49.033653)"><g><path d="M 10.527344 -16.316406 C 10.917969 -16.316406 11.128906 -16.527344 11.128906 -16.914062 L 11.128906 -19.796875 C 11.128906 -20.183594 10.917969 -20.394531 10.527344 -20.394531 L 1.410156 -20.394531 C 1.019531 -20.394531 0.808594 -20.183594 0.808594 -19.796875 L 0.808594 -16.914062 C 0.808594 -16.527344 1.019531 -16.316406 1.410156 -16.316406 L 7.003906 -16.316406 C 5.039062 -15.550781 3.71875 -13.480469 3.71875 -10.347656 L 3.71875 -4.078125 L 1.410156 -4.078125 C 1.019531 -4.078125 0.808594 -3.867188 0.808594 -3.480469 L 0.808594 -0.601562 C 0.808594 -0.210938 1.019531 0 1.410156 0 L 10.527344 0 C 10.917969 0 11.128906 -0.210938 11.128906 -0.601562 L 11.128906 -3.480469 C 11.128906 -3.867188 10.917969 -4.078125 10.527344 -4.078125 L 8.21875 -4.078125 L 8.21875 -16.316406 Z M 10.527344 -16.316406 "/></g></g></g><g fill="rgb(24.308777%, 25.489807%, 28.62854%)" fill-opacity="0.3098"><g transform="translate(107.387803, 49.033653)"><g><path d="M 1.648438 0.601562 C 4.257812 0 6.148438 -1.917969 6.148438 -6.566406 L 6.148438 -9.746094 C 6.148438 -11.757812 5.757812 -12.625 5.25 -13.707031 L 5.367188 -13.796875 L 14.394531 -0.390625 C 14.578125 -0.121094 14.816406 0 15.117188 0 L 18.265625 0 C 18.65625 0 18.867188 -0.210938 18.867188 -0.601562 L 18.867188 -20.996094 C 16.257812 -20.394531 14.367188 -18.476562 14.367188 -13.828125 L 14.367188 -10.648438 C 14.367188 -8.636719 14.757812 -7.769531 15.265625 -6.6875 L 15.144531 -6.597656 L 6.117188 -20.003906 C 5.9375 -20.273438 5.699219 -20.394531 5.398438 -20.394531 L 2.25 -20.394531 C 1.859375 -20.394531 1.648438 -20.183594 1.648438 -19.796875 Z M 1.648438 0.601562 "/></g></g></g><g fill="rgb(24.308777%, 25.489807%, 28.62854%)" fill-opacity="0.3098"><g transform="translate(127.929694, 49.033653)"><g><path d="M 21.953125 -10.886719 L 10.199219 -10.886719 C 10.796875 -8.757812 12.71875 -7.199219 16.164062 -7.199219 L 16.449219 -7.199219 C 16.015625 -5.21875 14.082031 -3.839844 11.457031 -3.839844 C 7.769531 -3.839844 5.308594 -6.179688 5.308594 -10.167969 C 5.308594 -14.335938 7.976562 -16.644531 11.277344 -16.644531 C 13.375 -16.644531 15.207031 -15.714844 15.925781 -14.035156 C 16.074219 -13.707031 16.285156 -13.554688 16.617188 -13.554688 L 20.15625 -13.554688 C 20.574219 -13.554688 20.816406 -13.796875 20.695312 -14.214844 C 19.554688 -18.265625 15.777344 -20.726562 11.308594 -20.726562 C 5.609375 -20.726562 0.808594 -16.707031 0.808594 -10.226562 C 0.808594 -3.660156 5.398438 0.238281 11.367188 0.238281 C 15.820312 0.238281 19.855469 -2.128906 21.023438 -7.199219 L 21.953125 -7.199219 C 22.34375 -7.199219 22.554688 -7.40625 22.554688 -7.796875 L 22.554688 -10.289062 C 22.554688 -10.675781 22.34375 -10.886719 21.953125 -10.886719 Z M 21.953125 -10.886719 "/></g></g></g><g fill="rgb(24.308777%, 25.489807%, 28.62854%)" fill-opacity="0.3098"><g transform="translate(150.900628, 49.033653)"><g><path d="M 11.277344 0.300781 C 17.574219 0.300781 21.773438 -3.777344 21.773438 -10.226562 C 21.773438 -16.617188 17.695312 -20.695312 11.308594 -20.695312 C 5.007812 -20.695312 0.808594 -16.707031 0.808594 -10.257812 C 0.808594 -3.898438 4.890625 0.300781 11.277344 0.300781 Z M 11.277344 -3.777344 C 7.976562 -3.777344 5.308594 -6.179688 5.308594 -10.257812 C 5.308594 -14.304688 7.976562 -16.617188 11.277344 -16.617188 C 14.636719 -16.617188 17.277344 -14.277344 17.277344 -10.257812 C 17.277344 -6.179688 14.636719 -3.777344 11.277344 -3.777344 Z M 11.277344 -3.777344 "/></g></g></g><g fill="rgb(100%, 59.999084%, 59.999084%)" fill-opacity="1"><g transform="translate(74.792977, 47.724728)"><g><path d="M 7.078125 0 C 14.667969 0 18.117188 -4.4375 18.117188 -10.199219 C 18.117188 -15.957031 14.636719 -20.394531 7.078125 -20.394531 L 2.21875 -20.394531 C 1.828125 -20.394531 1.621094 -20.183594 1.621094 -19.796875 L 1.621094 -0.601562 C 1.621094 -0.210938 1.828125 0 2.21875 0 Z M 6.117188 -16.316406 L 7.5 -16.316406 C 11.878906 -16.316406 13.617188 -13.585938 13.617188 -10.199219 C 13.617188 -6.808594 11.847656 -4.078125 7.5 -4.078125 L 6.117188 -4.078125 Z M 6.117188 -16.316406 "/></g></g></g><g fill="rgb(100%, 59.999084%, 59.999084%)" fill-opacity="1"><g transform="translate(93.715506, 47.724728)"><g><path d="M 10.527344 -16.316406 C 10.917969 -16.316406 11.128906 -16.527344 11.128906 -16.914062 L 11.128906 -19.796875 C 11.128906 -20.183594 10.917969 -20.394531 10.527344 -20.394531 L 1.410156 -20.394531 C 1.019531 -20.394531 0.808594 -20.183594 0.808594 -19.796875 L 0.808594 -16.914062 C 0.808594 -16.527344 1.019531 -16.316406 1.410156 -16.316406 L 7.003906 -16.316406 C 5.039062 -15.550781 3.71875 -13.480469 3.71875 -10.347656 L 3.71875 -4.078125 L 1.410156 -4.078125 C 1.019531 -4.078125 0.808594 -3.867188 0.808594 -3.480469 L 0.808594 -0.601562 C 0.808594 -0.210938 1.019531 0 1.410156 0 L 10.527344 0 C 10.917969 0 11.128906 -0.210938 11.128906 -0.601562 L 11.128906 -3.480469 C 11.128906 -3.867188 10.917969 -4.078125 10.527344 -4.078125 L 8.21875 -4.078125 L 8.21875 -16.316406 Z M 10.527344 -16.316406 "/></g></g></g><g fill="rgb(100%, 59.999084%, 59.999084%)" fill-opacity="1"><g transform="translate(105.650801, 47.724728)"><g><path d="M 1.648438 0.601562 C 4.257812 0 6.148438 -1.917969 6.148438 -6.566406 L 6.148438 -9.746094 C 6.148438 -11.757812 5.757812 -12.625 5.25 -13.707031 L 5.367188 -13.796875 L 14.394531 -0.390625 C 14.578125 -0.121094 14.816406 0 15.117188 0 L 18.265625 0 C 18.65625 0 18.867188 -0.210938 18.867188 -0.601562 L 18.867188 -20.996094 C 16.257812 -20.394531 14.367188 -18.476562 14.367188 -13.828125 L 14.367188 -10.648438 C 14.367188 -8.636719 14.757812 -7.769531 15.265625 -6.6875 L 15.144531 -6.597656 L 6.117188 -20.003906 C 5.9375 -20.273438 5.699219 -20.394531 5.398438 -20.394531 L 2.25 -20.394531 C 1.859375 -20.394531 1.648438 -20.183594 1.648438 -19.796875 Z M 1.648438 0.601562 "/></g></g></g><g fill="rgb(100%, 59.999084%, 59.999084%)" fill-opacity="1"><g transform="translate(126.192692, 47.724728)"><g><path d="M 21.953125 -10.886719 L 10.199219 -10.886719 C 10.796875 -8.757812 12.71875 -7.199219 16.164062 -7.199219 L 16.449219 -7.199219 C 16.015625 -5.21875 14.082031 -3.839844 11.457031 -3.839844 C 7.769531 -3.839844 5.308594 -6.179688 5.308594 -10.167969 C 5.308594 -14.335938 7.976562 -16.644531 11.277344 -16.644531 C 13.375 -16.644531 15.207031 -15.714844 15.925781 -14.035156 C 16.074219 -13.707031 16.285156 -13.554688 16.617188 -13.554688 L 20.15625 -13.554688 C 20.574219 -13.554688 20.816406 -13.796875 20.695312 -14.214844 C 19.554688 -18.265625 15.777344 -20.726562 11.308594 -20.726562 C 5.609375 -20.726562 0.808594 -16.707031 0.808594 -10.226562 C 0.808594 -3.660156 5.398438 0.238281 11.367188 0.238281 C 15.820312 0.238281 19.855469 -2.128906 21.023438 -7.199219 L 21.953125 -7.199219 C 22.34375 -7.199219 22.554688 -7.40625 22.554688 -7.796875 L 22.554688 -10.289062 C 22.554688 -10.675781 22.34375 -10.886719 21.953125 -10.886719 Z M 21.953125 -10.886719 "/></g></g></g><g fill="rgb(100%, 59.999084%, 59.999084%)" fill-opacity="1"><g transform="translate(149.163626, 47.724728)"><g><path d="M 11.277344 0.300781 C 17.574219 0.300781 21.773438 -3.777344 21.773438 -10.226562 C 21.773438 -16.617188 17.695312 -20.695312 11.308594 -20.695312 C 5.007812 -20.695312 0.808594 -16.707031 0.808594 -10.257812 C 0.808594 -3.898438 4.890625 0.300781 11.277344 0.300781 Z M 11.277344 -3.777344 C 7.976562 -3.777344 5.308594 -6.179688 5.308594 -10.257812 C 5.308594 -14.304688 7.976562 -16.617188 11.277344 -16.617188 C 14.636719 -16.617188 17.277344 -14.277344 17.277344 -10.257812 C 17.277344 -6.179688 14.636719 -3.777344 11.277344 -3.777344 Z M 11.277344 -3.777344 "/></g></g></g></svg>